<svg width="40" height="41" viewBox="0 0 40 41" fill="none" xmlns="http://www.w3.org/2000/svg">
<rect width="40" height="40" transform="translate(0 0.512512)" fill="white"/>
<g clip-path="url(#clip0_839_3165)">
<path d="M40 0.512512H0V40.5125H40V0.512512Z" fill="#78B3E0"/>
<path fill-rule="evenodd" clip-rule="evenodd" d="M5.67059 31.0066H10.2824V22.8184H14.8941C17.2235 22.8184 18.0706 23.7831 18.4 25.9948C18.6353 27.6654 18.5647 29.7125 19.1294 31.0301H23.7412C22.9177 29.8537 22.9412 27.3831 22.8471 26.0654C22.7059 23.9478 22.0471 21.736 19.7882 21.1478V21.0772C22.1177 20.136 23.1059 18.2772 23.1059 15.8066C23.1059 12.6301 20.7294 10.0184 16.9647 10.0184H5.67059V31.0066ZM10.2824 13.5948H15.3412C17.4118 13.5948 18.5177 14.489 18.5177 16.5125C18.5177 18.6301 17.3882 19.5243 15.3412 19.5243H10.2824V13.5948Z" fill="white"/>
<path fill-rule="evenodd" clip-rule="evenodd" d="M34.3294 10.4184H31.0118C30.5647 13.5713 27.9059 14.5596 24.9883 14.5125V17.6655H30.1647V31.0302H34.353V10.4184H34.3294Z" fill="white"/>
</g>
<defs>
<clipPath id="clip0_839_3165">
<rect width="40" height="40" fill="white" transform="translate(0 0.512512)"/>
</clipPath>
</defs>
</svg>
