<svg width="40" height="41" viewBox="0 0 40 41" fill="none" xmlns="http://www.w3.org/2000/svg">
<rect width="40" height="40" transform="translate(0 0.512451)" fill="white"/>
<g clip-path="url(#clip0_839_3615)">
<path d="M40 0.394775H0V40.6536H40V0.394775Z" fill="#0064A7"/>
<path d="M3.1059 12.7712H11.6235C14.4471 12.7712 16.2588 14.7477 16.2588 17.1712C16.2588 19.0301 15.5059 20.4418 13.7647 21.1477V21.1948C15.4588 21.6418 15.953 23.3124 16.0706 24.9124C16.1412 25.9242 16.1177 27.783 16.7294 28.6771H13.2471C12.8235 27.6654 12.8706 26.1359 12.6824 24.8654C12.4471 23.1948 11.7882 22.4654 10.0471 22.4654H6.58825V28.6771H3.1059V12.7712ZM6.58825 19.9712H10.4C11.953 19.9712 12.8 19.3124 12.8 17.6889C12.8 16.1595 11.953 15.4771 10.4 15.4771H6.58825V19.9712Z" fill="white"/>
<path d="M25.1294 28.6771H22V18.5595H18.0941V16.183C20.2824 16.2301 22.3059 15.4771 22.6353 13.0771H25.1294V28.6771Z" fill="white"/>
<path d="M35.2471 28.6771H32.1177V18.5595H28.2118V16.183C30.4 16.2301 32.4236 15.4771 32.753 13.0771H35.2471V28.6771Z" fill="white"/>
</g>
<defs>
<clipPath id="clip0_839_3615">
<rect width="40" height="40" fill="white" transform="translate(0 0.512451)"/>
</clipPath>
</defs>
</svg>
