<svg width="40" height="41" viewBox="0 0 40 41" fill="none" xmlns="http://www.w3.org/2000/svg">
<rect width="40" height="40" transform="translate(0 0.512451)" fill="white"/>
<g clip-path="url(#clip0_839_3634)">
<path d="M40 0.465332H0V40.583H40V0.465332Z" fill="#FFDD00"/>
<path fill-rule="evenodd" clip-rule="evenodd" d="M3.50589 28.5595H6.98824V22.3713H10.4706C12.2118 22.3713 12.8706 23.1007 13.1059 24.7713C13.2941 26.0419 13.2471 27.5713 13.6471 28.5595H17.1294C16.5177 27.6654 16.5412 25.8066 16.4706 24.7948C16.3294 23.2183 15.8588 21.5477 14.1412 21.1007V21.0536C15.8824 20.3477 16.6353 18.936 16.6353 17.0772C16.6353 14.6772 14.8471 12.7007 12 12.7007H3.50589V28.5595ZM6.96471 15.4301H10.7765C12.3294 15.4301 13.1765 16.0889 13.1765 17.6183C13.1765 19.2183 12.3294 19.8772 10.7765 19.8772H6.96471V15.4301Z" fill="#1D1D1B"/>
<path fill-rule="evenodd" clip-rule="evenodd" d="M24.4235 13.0302H21.9294C21.6 15.4066 19.5765 16.1596 17.3882 16.1125V18.489H21.2941V28.5596H24.4471V13.0302H24.4235Z" fill="#1D1D1B"/>
<path fill-rule="evenodd" clip-rule="evenodd" d="M29.6706 19.0066C29.6706 17.3595 30.2588 15.4301 32.1176 15.4301C33.4588 15.4301 34.4471 16.3713 34.4471 17.8301C34.4235 19.736 32.5647 20.7007 31.2 21.6183C28.5176 23.4301 26.3294 24.983 26.3059 28.5595H37.6941V25.8536H30.3529C31.4823 24.2536 33.2941 23.3595 34.8235 22.2772C36.3529 21.1948 37.6 19.9007 37.6 17.5713C37.6 14.536 35.1294 12.7007 32.2823 12.7007C28.5647 12.7007 26.5412 15.4301 26.6588 18.983H29.6706V19.0066Z" fill="#1D1D1B"/>
</g>
<defs>
<clipPath id="clip0_839_3634">
<rect width="40" height="40" fill="white" transform="translate(0 0.512451)"/>
</clipPath>
</defs>
</svg>
