<svg width="40" height="41" viewBox="0 0 40 41" fill="none" xmlns="http://www.w3.org/2000/svg">
<rect width="40" height="40" transform="translate(0 0.512451)" fill="white"/>
<g clip-path="url(#clip0_839_3653)">
<path d="M40 0.465332H0V40.583H40V0.465332Z" fill="#E8308A"/>
<path d="M3.55295 12.8182H12.0706C14.8941 12.8182 16.6824 14.7947 16.6824 17.1712C16.6824 19.03 15.9294 20.4182 14.1882 21.1477V21.1947C15.8824 21.6418 16.3765 23.3124 16.4706 24.8888C16.5412 25.8771 16.5177 27.7594 17.1294 28.63H13.6706C13.2471 27.6418 13.2941 26.1124 13.1059 24.8418C12.8706 23.1947 12.2353 22.4653 10.4941 22.4653H7.01177V28.6535H3.55295V12.8182ZM7.01177 19.9712H10.8235C12.3765 19.9712 13.2 19.3124 13.2 17.7124C13.2 16.1829 12.3529 15.5241 10.8235 15.5241H7.01177V19.9712Z" fill="white"/>
<path d="M24.4471 28.6536H21.3177V18.583H17.4118V16.2065C19.6 16.2536 21.6235 15.5006 21.9529 13.1241H24.4471V28.6536Z" fill="white"/>
<path d="M30.9176 19.4065C32.2588 19.5241 34.2118 19.2418 34.2118 17.4771C34.2118 16.1594 33.1765 15.4065 32.0235 15.4065C30.4471 15.4065 29.6 16.5829 29.6235 18.1829H26.6353C26.7529 15.0065 28.8 12.8182 31.9765 12.8182C34.4471 12.8182 37.1765 14.3476 37.1765 17.1241C37.1765 18.5829 36.4471 19.9006 35.0118 20.3006V20.3477C36.7059 20.7241 37.7647 22.1359 37.7647 23.8771C37.7647 27.1241 35.0353 28.9829 32.0235 28.9829C28.5412 28.9829 26.2118 26.8888 26.2824 23.3359H29.2706C29.3412 25.03 30.1647 26.3947 32 26.3947C33.4118 26.3947 34.5176 25.43 34.5176 23.9477C34.5176 21.5947 32.4706 21.6418 30.9412 21.6418V19.4065H30.9176Z" fill="white"/>
</g>
<defs>
<clipPath id="clip0_839_3653">
<rect width="40" height="40" fill="white" transform="translate(0 0.512451)"/>
</clipPath>
</defs>
</svg>
