<svg width="40" height="41" viewBox="0 0 40 41" fill="none" xmlns="http://www.w3.org/2000/svg">
<rect width="40" height="40" transform="translate(0 0.512451)" fill="white"/>
<g clip-path="url(#clip0_839_3672)">
<path d="M40 0.465332H0V40.583H40V0.465332Z" fill="#6A509D"/>
<path d="M3.55295 12.8182H12.0706C14.8941 12.8182 16.7059 14.7947 16.7059 17.1947C16.7059 19.0535 15.9529 20.4418 14.2118 21.1712V21.2182C15.9059 21.6653 16.4 23.3359 16.5177 24.9124C16.5882 25.9241 16.5647 27.7829 17.1765 28.6535H13.6706C13.2471 27.6653 13.2941 26.1124 13.1059 24.8653C12.8706 23.1947 12.2353 22.4653 10.4941 22.4653H7.01177V28.6535H3.55295V12.8182ZM7.01177 19.9712H10.8235C12.3765 19.9712 13.2235 19.3124 13.2235 17.7124C13.2235 16.1829 12.3765 15.5241 10.8235 15.5241H7.01177V19.9712Z" fill="white"/>
<path d="M24.4471 28.6536H21.3177V18.583H17.4118V16.2065C19.6 16.2536 21.6235 15.5006 21.9529 13.1241H24.4471V28.6536Z" fill="white"/>
<path d="M32.7765 25.0536H26.2353V22.1594L32.9412 13.1241H35.7647V22.4653H37.8118V25.0536H35.7647V28.6536H32.7765V25.0536ZM32.7765 17.0771H32.7059L28.7059 22.4653H32.7765V17.0771Z" fill="white"/>
</g>
<defs>
<clipPath id="clip0_839_3672">
<rect width="40" height="40" fill="white" transform="translate(0 0.512451)"/>
</clipPath>
</defs>
</svg>
