<svg width="40" height="41" viewBox="0 0 40 41" fill="none" xmlns="http://www.w3.org/2000/svg">
<rect width="40" height="40" transform="translate(0 0.512451)" fill="white"/>
<g clip-path="url(#clip0_839_3710)">
<path d="M40 0.512451H0V40.5125H40V0.512451Z" fill="#B20933"/>
<path d="M3.55295 12.8184H12.0706C14.8941 12.8184 16.7059 14.7948 16.7059 17.1713C16.7059 19.0301 15.9529 20.4184 14.2118 21.1242V21.1713C15.9059 21.6184 16.4 23.2654 16.5177 24.8654C16.5882 25.8537 16.5647 27.7125 17.1765 28.6066H13.6706C13.2471 27.6184 13.2941 26.0889 13.1294 24.8184C12.8941 23.1713 12.2353 22.4419 10.4941 22.4419H7.01177V28.6066H3.55295V12.8184ZM7.01177 19.9713H10.8235C12.3765 19.9713 13.2235 19.3125 13.2235 17.7125C13.2235 16.1831 12.3765 15.5242 10.8235 15.5242H7.01177V19.9713Z" fill="white"/>
<path d="M24.4706 28.6301H21.3177V18.5831H17.4118V16.2066C19.6 16.2537 21.6235 15.5007 21.9529 13.1243H24.4471V28.6301H24.4706Z" fill="white"/>
<path d="M34.4706 17.1243C34.2823 16.089 33.4823 15.1949 32.4 15.1949C30.1176 15.1949 29.5294 18.1831 29.4353 19.9007L29.4823 19.9478C30.3529 18.7243 31.4823 18.2302 32.9882 18.2302C34.3059 18.2302 35.6706 18.8419 36.5412 19.8302C37.3647 20.7713 37.7412 22.0654 37.7412 23.289C37.7412 26.4654 35.5529 28.9596 32.3294 28.9596C27.6235 28.9596 26.3765 24.8654 26.3765 20.936C26.3765 17.1478 28.0471 12.8419 32.4706 12.8419C35.1529 12.8419 37.1294 14.4184 37.4823 17.1478H34.4706V17.1243ZM29.6941 23.4537C29.6941 24.889 30.6118 26.3243 32.1882 26.3243C33.6941 26.3243 34.5647 24.889 34.5647 23.5007C34.5647 22.0419 33.8118 20.5831 32.1882 20.5831C30.5176 20.5831 29.6941 21.9478 29.6941 23.4537Z" fill="white"/>
</g>
<defs>
<clipPath id="clip0_839_3710">
<rect width="40" height="40" fill="white" transform="translate(0 0.512451)"/>
</clipPath>
</defs>
</svg>
