<svg width="40" height="41" viewBox="0 0 40 41" fill="none" xmlns="http://www.w3.org/2000/svg">
<rect width="40" height="40" transform="translate(0 0.512451)" fill="white"/>
<g clip-path="url(#clip0_839_3729)">
<path d="M40 0.465332H0V40.583H40V0.465332Z" fill="#E87200"/>
<path d="M3.50589 12.7948H12.0235C14.8471 12.7948 16.6588 14.7713 16.6588 17.1713C16.6588 19.0301 15.9059 20.4419 14.1647 21.1477V21.1948C15.8588 21.6419 16.353 23.3124 16.4706 24.8889C16.5412 25.9007 16.5177 27.7595 17.1294 28.6301H13.6471C13.2235 27.6183 13.2706 26.0889 13.0824 24.8419C12.8471 23.1713 12.1882 22.4419 10.4471 22.4419H6.98824V28.6301H3.50589V12.7948ZM6.98824 19.9713H10.8C12.3529 19.9713 13.2 19.3124 13.2 17.7124C13.2 16.183 12.3529 15.5242 10.8 15.5242H6.98824V19.9713Z" fill="white"/>
<path d="M24.4235 28.6537H21.2706V18.5831H17.3882V16.2066C19.5765 16.2537 21.6 15.5007 21.9294 13.1243H24.4235V28.6537Z" fill="white"/>
<path d="M37.2706 15.8301C34.0235 18.6772 32.2588 24.5125 32.2118 28.6537H28.8471C29.2 24.0654 31.1059 19.5949 34.0471 16.0419H26.7059V13.1243H37.2941V15.8301H37.2706Z" fill="white"/>
</g>
<defs>
<clipPath id="clip0_839_3729">
<rect width="40" height="40" fill="white" transform="translate(0 0.512451)"/>
</clipPath>
</defs>
</svg>
