<svg width="40" height="41" viewBox="0 0 40 41" fill="none" xmlns="http://www.w3.org/2000/svg">
<rect width="40" height="40" transform="translate(0 0.512512)" fill="white"/>
<g clip-path="url(#clip0_839_3167)">
<path d="M40 0.512512H0V40.5125H40V0.512512Z" fill="#009640"/>
<path fill-rule="evenodd" clip-rule="evenodd" d="M2.98822 31.0066H7.59999V22.7948H12.2118C14.5412 22.7948 15.3882 23.7595 15.7176 25.9713C15.9529 27.6419 15.9059 29.689 16.447 31.0066H21.0588C20.2353 29.8301 20.2588 27.3596 20.1882 26.0419C20.047 23.9243 19.3882 21.7125 17.1294 21.1243V21.0772C19.4588 20.136 20.447 18.2772 20.447 15.8066C20.447 12.6301 18.0706 10.0184 14.3059 10.0184H2.98822V31.0066ZM7.59999 13.5948H12.6588C14.7059 13.5948 15.8353 14.489 15.8353 16.5125C15.8353 18.6301 14.7059 19.5007 12.6588 19.5007H7.59999V13.5948Z" fill="white"/>
<path fill-rule="evenodd" clip-rule="evenodd" d="M26.3765 18.3478C26.3765 16.1596 27.1765 13.6184 29.6471 13.6184C31.4353 13.6184 32.7294 14.8655 32.7294 16.7949C32.7059 19.336 30.2353 20.5831 28.4 21.8302C24.8471 24.2537 21.9294 26.2772 21.9059 31.0302H37.0353V27.4537H27.2941C28.8 25.336 31.2 24.1596 33.2235 22.7243C35.2471 21.289 36.8941 19.5713 36.8941 16.489C36.8941 12.4655 33.6 10.0419 29.8353 10.0419C24.8941 10.0419 22.2118 13.6655 22.3529 18.3713H26.3765V18.3478Z" fill="white"/>
</g>
<defs>
<clipPath id="clip0_839_3167">
<rect width="40" height="40" fill="white" transform="translate(0 0.512512)"/>
</clipPath>
</defs>
</svg>
