<svg width="40" height="41" viewBox="0 0 40 41" fill="none" xmlns="http://www.w3.org/2000/svg">
<rect width="40" height="40" transform="translate(0 0.512512)" fill="white"/>
<g clip-path="url(#clip0_839_3317)">
<path d="M40 0.512512H0V40.5125H40V0.512512Z" fill="#E63027"/>
<path fill-rule="evenodd" clip-rule="evenodd" d="M3.2706 30.8654H7.90589V22.6301H12.5412C14.8706 22.6301 15.7412 23.5948 16.0471 25.8301C16.2824 27.5243 16.2353 29.5478 16.7765 30.889H21.4118C20.5882 29.7125 20.6118 27.2184 20.5177 25.9007C20.3765 23.7831 19.7177 21.5478 17.4588 20.9596V20.889C19.7882 19.9478 20.8 18.089 20.8 15.5948C20.8 12.3948 18.4235 9.78308 14.6353 9.78308H3.2706V30.8654ZM7.88236 13.4066H12.9647C15.0353 13.4066 16.1647 14.3007 16.1647 16.3243C16.1647 18.4419 15.0353 19.336 12.9647 19.336H7.88236V13.4066Z" fill="white"/>
<path fill-rule="evenodd" clip-rule="evenodd" d="M28.5412 21.5243C30.5883 21.5243 33.3177 21.4772 33.3177 24.5831C33.3177 26.536 31.8353 27.8301 29.953 27.8301C27.5294 27.8301 26.4 25.9948 26.3294 23.7596H22.353C22.2588 28.5125 25.3883 31.289 30.0235 31.289C34.0706 31.289 37.6941 28.8419 37.6941 24.489C37.6941 22.1831 36.3059 20.3007 34.0235 19.7831V19.736C35.953 19.1948 36.9177 17.4537 36.9177 15.5007C36.9177 11.8066 33.2941 9.78308 29.9765 9.78308C25.7177 9.78308 22.9883 12.7007 22.8235 16.936H26.8C26.7765 14.8184 27.8824 13.2419 30 13.2419C31.5294 13.2419 32.9177 14.2537 32.9177 15.9948C32.9177 18.3478 30.3294 18.7007 28.5177 18.5596V21.5243H28.5412Z" fill="white"/>
</g>
<defs>
<clipPath id="clip0_839_3317">
<rect width="40" height="40" fill="white" transform="translate(0 0.512512)"/>
</clipPath>
</defs>
</svg>
