<svg width="40" height="41" viewBox="0 0 40 41" fill="none" xmlns="http://www.w3.org/2000/svg">
<rect width="40" height="40" transform="translate(0 0.512512)" fill="white"/>
<g clip-path="url(#clip0_839_3361)">
<path d="M40 0.512512H0V40.5125H40V0.512512Z" fill="#F6A22D"/>
<path fill-rule="evenodd" clip-rule="evenodd" d="M3.2706 30.8654H7.90589V22.6301H12.5412C14.8706 22.6301 15.7412 23.5948 16.0471 25.8301C16.2824 27.5243 16.2118 29.5478 16.7765 30.8654H21.4118C20.5882 29.689 20.6118 27.1948 20.5177 25.8772C20.3765 23.7596 19.7177 21.5478 17.4588 20.936V20.889C19.7882 19.9478 20.8 18.089 20.8 15.5948C20.8 12.4184 18.4 9.78308 14.6353 9.78308H3.2706V30.8654ZM7.90589 13.4066H12.9882C15.0588 13.4066 16.1647 14.3007 16.1647 16.3243C16.1647 18.4419 15.0353 19.336 12.9647 19.336H7.90589V13.4066Z" fill="white"/>
<path fill-rule="evenodd" clip-rule="evenodd" d="M31.3177 30.8654H35.2941V26.089H38.0471V22.6301H35.2941V10.2066H31.553L22.5647 22.2537V26.089H31.2941V30.8654H31.3177ZM31.3177 22.6301H25.8824L31.2236 15.4537H31.3177V22.6301Z" fill="white"/>
</g>
<defs>
<clipPath id="clip0_839_3361">
<rect width="40" height="40" fill="white" transform="translate(0 0.512512)"/>
</clipPath>
</defs>
</svg>
