<svg width="40" height="41" viewBox="0 0 40 41" fill="none" xmlns="http://www.w3.org/2000/svg">
<rect width="40" height="40" transform="translate(0 0.512451)" fill="white"/>
<g clip-path="url(#clip0_839_3468)">
<path d="M40 0.512451H0V40.5125H40V0.512451Z" fill="#BF7FB5"/>
<path fill-rule="evenodd" clip-rule="evenodd" d="M3.2706 30.8654H7.90589V22.6301H12.5412C14.8706 22.6301 15.7412 23.5948 16.0471 25.8301C16.2824 27.5243 16.2118 29.5478 16.7765 30.889H21.4118C20.5882 29.7125 20.6118 27.2184 20.5177 25.9007C20.3765 23.7831 19.7177 21.5713 17.4353 20.9596V20.889C19.7647 19.9478 20.7765 18.089 20.7765 15.5948C20.7765 12.3948 18.3765 9.78308 14.6118 9.78308H3.2706V30.8654ZM7.90589 13.4066H12.9882C15.0588 13.4066 16.1882 14.3007 16.1882 16.3243C16.1647 18.4419 15.0353 19.336 12.9647 19.336H7.90589V13.4066Z" fill="white"/>
<path fill-rule="evenodd" clip-rule="evenodd" d="M36.9177 10.2067H22.8V14.1125H32.6118C28.6824 18.842 26.1412 24.7714 25.6706 30.889H30.1647C30.2353 25.3596 32.5883 17.5949 36.9177 13.8302V10.2067Z" fill="white"/>
</g>
<defs>
<clipPath id="clip0_839_3468">
<rect width="40" height="40" fill="white" transform="translate(0 0.512451)"/>
</clipPath>
</defs>
</svg>
