<svg width="40" height="41" viewBox="0 0 40 41" fill="none" xmlns="http://www.w3.org/2000/svg">
<rect width="40" height="40" transform="translate(0 0.512451)" fill="white"/>
<g clip-path="url(#clip0_839_3499)">
<path d="M40 0.512451H0V40.5125H40V0.512451Z" fill="#870064"/>
<path fill-rule="evenodd" clip-rule="evenodd" d="M3.17648 30.2066H7.81178V21.9713H12.4706C14.8 21.9713 15.6706 22.936 15.9765 25.1713C16.2118 26.8654 16.1647 28.889 16.7059 30.2302H21.3412C20.5177 29.0537 20.5412 26.5596 20.4471 25.2419C20.3059 23.1243 19.6471 20.889 17.3647 20.3007V20.2302C19.6941 19.289 20.7059 17.4301 20.7059 14.936C20.7059 11.7596 18.3059 9.12427 14.5412 9.12427H3.17648V30.2066ZM7.83531 12.7243H12.9177C14.9882 12.7243 16.1177 13.6184 16.1177 15.6419C16.1177 17.7596 14.9882 18.6537 12.9177 18.6537H7.83531V12.7243Z" fill="white"/>
<path fill-rule="evenodd" clip-rule="evenodd" d="M27.0823 23.9478C27.0823 21.8301 28.7059 20.6772 30.7529 20.6772C32.7059 20.6772 34.3059 21.9948 34.3059 23.9948C34.3059 26.0654 32.7765 27.4772 30.7529 27.4772C28.7529 27.4536 27.0823 26.0654 27.0823 23.9478ZM23.7412 14.7478C23.7412 16.7948 24.7765 18.4419 26.7765 19.0066V19.0536C24.3529 19.6419 22.8706 21.5007 22.8706 24.136C22.8706 28.6066 26.7529 30.6066 30.7294 30.6066C34.5647 30.6066 38.4706 28.4419 38.4706 24.1125C38.4706 21.5007 37.0588 19.6184 34.5882 19.0536V19.0066C36.5412 18.3478 37.6 16.7007 37.6 14.6536C37.6 12.6536 35.8353 9.10071 30.6823 9.10071C27.3412 9.10071 23.7412 11.0301 23.7412 14.7478ZM27.5529 15.1478C27.5529 13.3125 29.0353 12.2772 30.7059 12.2772C33.2941 12.2772 33.8118 14.0889 33.8118 15.1478C33.8118 16.9125 32.4235 17.8772 30.7059 17.8772C29.0353 17.8536 27.5529 16.936 27.5529 15.1478Z" fill="white"/>
</g>
<defs>
<clipPath id="clip0_839_3499">
<rect width="40" height="40" fill="white" transform="translate(0 0.512451)"/>
</clipPath>
</defs>
</svg>
