<svg width="40" height="41" viewBox="0 0 40 41" fill="none" xmlns="http://www.w3.org/2000/svg">
<rect width="40" height="40" transform="translate(0 0.512451)" fill="white"/>
<g clip-path="url(#clip0_839_3829)">
<path d="M40 0.512451H0V40.5125H40V0.512451Z" fill="#0071CE"/>
<path d="M2.1647 11.5948H9.38823C11.7882 11.5948 13.2941 13.5478 13.2941 15.9478C13.2941 17.8066 12.6588 19.1948 11.1765 19.9007V19.9478C12.6118 20.3948 13.0353 22.0419 13.1294 23.6419C13.1765 24.6301 13.1765 26.489 13.6941 27.3831H10.7529C10.4 26.3948 10.4235 24.8654 10.2824 23.6184C10.0706 21.9243 9.52941 21.1948 8.04706 21.1948H5.10588V27.3596H2.1647V11.5948ZM5.10588 18.7243H8.32941C9.64706 18.7243 10.3529 18.0654 10.3529 16.4654C10.3529 14.936 9.64706 14.2772 8.32941 14.2772H5.10588V18.7243Z" fill="white"/>
<path d="M25.3882 25.5713C24.3529 27.1478 23.0117 27.736 21.7176 27.736C17.5765 27.736 15.1294 24.089 15.1294 19.5478C15.1294 14.8654 17.5765 11.2184 21.7176 11.2184C24.447 11.2184 27.0353 13.1949 27.3647 16.7713H24.5412C24.2117 15.0301 23.1059 14.1125 21.7176 14.1125C19.0823 14.1125 18.0706 16.7713 18.0706 19.5243C18.0706 22.1596 19.0588 24.7949 21.7176 24.7949C23.6235 24.7949 24.7294 23.5713 24.8941 21.4066H21.9294V18.8184H27.5529V27.336H25.6706L25.3882 25.5713Z" fill="white"/>
<path d="M36 27.3596H33.3412V17.3361H30.0471V14.9831C31.9059 15.0302 33.6 14.2773 33.8824 11.9243H36V27.3596Z" fill="white"/>
</g>
<defs>
<clipPath id="clip0_839_3829">
<rect width="40" height="40" fill="white" transform="translate(0 0.512451)"/>
</clipPath>
</defs>
</svg>
