<svg width="40" height="40" viewBox="0 0 40 40" fill="none" xmlns="http://www.w3.org/2000/svg">
<rect width="40" height="40" fill="#949300"/>
<path d="M2 11.707H9.75285C12.3317 11.707 13.961 13.6487 13.961 16.0061C13.961 17.8399 13.2748 19.2137 11.6846 19.9148V19.9593C13.2358 20.3971 13.6781 22.0342 13.7789 23.6047C13.8407 24.5883 13.8179 26.4221 14.3837 27.2946H11.2228C10.839 26.311 10.8813 24.8072 10.7187 23.5635C10.4976 21.9263 9.9122 21.2061 8.32195 21.2061H5.16098V27.2978H2V11.7134V11.707ZM5.16098 18.76H8.62439C10.0325 18.76 10.8 18.1064 10.8 16.5327C10.8 14.9591 10.0358 14.3721 8.62439 14.3721H5.16098V18.76Z" fill="white"/>
<path d="M16.5361 11.707H19.6971V24.4106H26.7052V27.2914H16.5361V11.707Z" fill="white"/>
<path d="M31.6811 18.1921C32.9104 18.2999 34.6827 18.0398 34.6827 16.2916C34.6827 15.0035 33.7364 14.2611 32.6892 14.2611C31.2583 14.2611 30.4941 15.4191 30.5136 16.9896H27.7949C27.8957 13.8676 29.7689 11.707 32.6697 11.707C34.9234 11.707 37.4014 13.2141 37.4014 15.9426C37.4014 17.383 36.738 18.6711 35.4274 19.0646V19.109C36.9787 19.4802 37.925 20.8762 37.925 22.5799C37.925 25.7875 35.4469 27.5992 32.6892 27.5992C29.5283 27.5992 27.3917 25.5464 27.4535 22.0342H30.1722C30.2339 23.6935 30.9982 25.0451 32.6502 25.0451C33.938 25.0451 34.9461 24.0838 34.9461 22.6434C34.9461 20.3305 33.073 20.3717 31.6843 20.3717V18.1889L31.6811 18.1921Z" fill="white"/>
</svg>
