<svg width="40" height="41" viewBox="0 0 40 41" fill="none" xmlns="http://www.w3.org/2000/svg">
<rect width="40" height="40" transform="translate(0 0.512451)" fill="white"/>
<g clip-path="url(#clip0_839_3848)">
<path d="M40 0.512451H0V40.5125H40V0.512451Z" fill="#00C4B3"/>
<path d="M3.69412 12.6771H10.9412C13.3647 12.6771 14.8706 14.6536 14.8706 17.0536C14.8706 18.9124 14.2353 20.3242 12.7294 21.0301V21.0771C14.1882 21.5242 14.5882 23.1948 14.6824 24.7712C14.7294 25.7595 14.7294 27.6418 15.2471 28.5124H12.3294C11.9765 27.5242 12 25.9712 11.8588 24.7242C11.6471 23.0771 11.1059 22.3477 9.62353 22.3477H6.65883V28.5359H3.69412V12.6771ZM6.65883 19.8536H9.90589C11.2235 19.8536 11.9529 19.1948 11.9529 17.5948C11.9529 16.0654 11.2471 15.4065 9.90589 15.4065H6.65883V19.8536Z" fill="white"/>
<path d="M19.9529 15.6183H15.9059V12.6771H26.9412V15.5948H22.8941V28.5124H19.9529V15.6183Z" fill="white"/>
<path d="M34.5647 28.536H31.8823V18.4654H28.5647V16.0889C30.4235 16.136 32.1412 15.3831 32.4235 13.0066H34.5647V28.536Z" fill="white"/>
</g>
<defs>
<clipPath id="clip0_839_3848">
<rect width="40" height="40" fill="white" transform="translate(0 0.512451)"/>
</clipPath>
</defs>
</svg>
