<svg width="40" height="41" viewBox="0 0 40 41" fill="none" xmlns="http://www.w3.org/2000/svg">
<rect width="40" height="40" transform="translate(0 0.512451)" fill="white"/>
<g clip-path="url(#clip0_839_3867)">
<path d="M40 0.512451H0V40.5125H40V0.512451Z" fill="#E577CB"/>
<path d="M3.76471 13.3831H11.0118C13.4118 13.3831 14.9412 15.3595 14.9412 17.7595C14.9412 19.6184 14.3059 21.0066 12.8235 21.736V21.7831C14.2824 22.2301 14.6824 23.9007 14.7765 25.4772C14.8235 26.4654 14.8235 28.3478 15.3412 29.2184H12.4C12.0471 28.2301 12.0706 26.7007 11.9294 25.4301C11.7177 23.7595 11.1765 23.0301 9.69412 23.0301H6.72942V29.2184H3.76471V13.3831ZM6.72942 20.536H9.97647C11.2941 20.536 12 19.8772 12 18.2772C12 16.7478 11.2941 16.0889 9.97647 16.0889H6.72942V20.536Z" fill="white"/>
<path d="M20.0235 16.3007H15.9765V13.3831H26.9882V16.3007H22.9647V29.1948H20.0235V16.3007Z" fill="white"/>
<path d="M27.9529 19.6654C27.8588 16.1125 29.5765 13.3831 32.7294 13.3831C35.1294 13.3831 37.2471 15.1948 37.2471 18.2301C37.2471 20.5595 36.1882 21.8536 34.8941 22.936C33.6 24.0184 32.0471 24.9125 31.0824 26.5125H37.3177V29.2184H27.6471C27.6706 25.6184 29.5294 24.0889 31.8118 22.2772C32.9882 21.336 34.5647 20.3948 34.5882 18.4889C34.5882 17.0301 33.7647 16.0889 32.6118 16.0889C31.0353 16.0889 30.5177 18.0184 30.5177 19.6654H27.9529Z" fill="white"/>
</g>
<defs>
<clipPath id="clip0_839_3867">
<rect width="40" height="40" fill="white" transform="translate(0 0.512451)"/>
</clipPath>
</defs>
</svg>
